<svg xmlns="http://www.w3.org/2000/svg" width="400" height="300" role="img" aria-labelledby="title desc">
  <title id="title">Ilustrasi anak kecil gembira</title>
  <desc id="desc">Dua kanak-kanak kartun berpegangan tangan di padang rumput dengan pelangi.</desc>
  <rect width="400" height="300" rx="32" fill="#dff6ff" />
  <defs>
    <linearGradient id="rainbow" x1="0%" y1="100%" x2="100%" y2="0%">
      <stop offset="0%" stop-color="#ff9a9e" />
      <stop offset="50%" stop-color="#fad0c4" />
      <stop offset="100%" stop-color="#fbc2eb" />
    </linearGradient>
  </defs>
  <path d="M40 220 C 120 160 280 160 360 220" stroke="url(#rainbow)" stroke-width="18" fill="none" stroke-linecap="round" />
  <rect x="0" y="220" width="400" height="80" rx="28" fill="#b9fbc0" />
  <g transform="translate(140 170)">
    <circle cx="-30" cy="-40" r="32" fill="#ffe7c7" />
    <path d="M-62 -40 C -50 -75 -10 -75 2 -40 Z" fill="#ffb3c1" />
    <rect x="-68" y="-10" width="80" height="90" rx="28" fill="#8ec5fc" />
    <circle cx="-45" cy="-42" r="6" fill="#2d3142" />
    <circle cx="-15" cy="-42" r="6" fill="#2d3142" />
    <path d="M-48 -22 Q -30 -10 -12 -22" stroke="#2d3142" stroke-width="5" stroke-linecap="round" fill="none" />
    <rect x="-90" y="70" width="32" height="60" rx="16" fill="#ff9a9e" />
    <rect x="-10" y="70" width="32" height="60" rx="16" fill="#ffde7d" />
  </g>
  <g transform="translate(270 175)">
    <circle cx="0" cy="-44" r="30" fill="#ffe7c7" />
    <path d="M-38 -46 C -30 -82 30 -82 38 -46 Z" fill="#f6c177" />
    <rect x="-46" y="-10" width="92" height="88" rx="30" fill="#d8b4fe" />
    <circle cx="-12" cy="-46" r="6" fill="#2d3142" />
    <circle cx="12" cy="-46" r="6" fill="#2d3142" />
    <path d="M-18 -26 Q 0 -12 18 -26" stroke="#2d3142" stroke-width="5" stroke-linecap="round" fill="none" />
    <rect x="-54" y="70" width="32" height="58" rx="16" fill="#8ec5fc" />
    <rect x="22" y="70" width="32" height="58" rx="16" fill="#ff9a9e" />
  </g>
</svg>
