<svg xmlns="http://www.w3.org/2000/svg" width="400" height="300" role="img" aria-labelledby="title desc">
  <title id="title">Ilustrasi ibu dan anak</title>
  <desc id="desc">Seorang ibu memeluk anak kecil dengan hati berwarna merah jambu di sekeliling.</desc>
  <rect width="400" height="300" rx="32" fill="#ffe5ec" />
  <g transform="translate(200 170)">
    <circle cx="-40" cy="-80" r="42" fill="#ffd6e0" />
    <circle cx="20" cy="-90" r="34" fill="#ffe7c7" />
    <path d="M-88 -20 Q -60 -90 -10 -90 Q 40 -90 68 -20" fill="#ff9a9e" />
    <path d="M-100 60 Q -60 -10 -10 -18 Q 48 -26 90 60" fill="#8ec5fc" />
    <circle cx="-52" cy="-86" r="6" fill="#2d3142" />
    <circle cx="-28" cy="-86" r="6" fill="#2d3142" />
    <path d="M-56 -66 Q -40 -52 -24 -66" stroke="#2d3142" stroke-width="5" stroke-linecap="round" fill="none" />
    <circle cx="8" cy="-96" r="5" fill="#2d3142" />
    <circle cx="30" cy="-96" r="5" fill="#2d3142" />
    <path d="M6 -78 Q 18 -70 32 -78" stroke="#2d3142" stroke-width="4" stroke-linecap="round" fill="none" />
    <path d="M-40 -20 C -8 16 18 18 56 -14" stroke="#ffe7c7" stroke-width="24" stroke-linecap="round" fill="none" />
  </g>
  <g fill="#ffb3c1" opacity="0.7">
    <path d="M70 70 C 80 50 110 50 120 70 C 120 90 100 110 95 110 C 90 110 70 90 70 70" />
    <path d="M280 80 C 292 58 324 58 336 80 C 336 100 314 120 308 120 C 302 120 280 100 280 80" />
    <path d="M320 180 C 330 160 360 160 372 180 C 372 200 350 220 344 220 C 338 220 320 200 320 180" />
  </g>
</svg>
