<svg xmlns="http://www.w3.org/2000/svg" width="520" height="360" role="img" aria-labelledby="title desc">
  <title id="title">Kanak-kanak bermain di taman permainan</title>
  <desc id="desc">Dua kanak-kanak sedang meluncur dan bermain buaian di taman permainan berwarna-warni.</desc>
  <rect width="520" height="360" rx="40" fill="#dff6ff" />
  <rect x="0" y="250" width="520" height="110" fill="#b9fbc0" />
  <g opacity="0.15" fill="#8ec5fc">
    <circle cx="80" cy="70" r="40" />
    <circle cx="150" cy="55" r="28" />
    <circle cx="230" cy="78" r="42" />
    <circle cx="320" cy="50" r="34" />
    <circle cx="410" cy="72" r="38" />
  </g>
  <g transform="translate(120 190)">
    <rect x="-60" y="-90" width="20" height="160" rx="10" fill="#ff9a9e" />
    <rect x="80" y="-90" width="20" height="160" rx="10" fill="#ff9a9e" />
    <rect x="-40" y="-80" width="140" height="14" rx="7" fill="#2d3142" />
    <rect x="-22" y="-62" width="44" height="14" rx="7" fill="#fdbb2d" />
    <rect x="62" y="-62" width="44" height="14" rx="7" fill="#8ec5fc" />
    <path d="M-4 -48 h32 v70 h-32z" fill="#ffd166" />
    <circle cx="12" cy="40" r="18" fill="#f97373" />
    <rect x="64" y="-48" width="32" height="90" rx="16" fill="#8ec5fc" />
  </g>
  <g transform="translate(360 210)">
    <rect x="-100" y="-110" width="16" height="200" rx="8" fill="#f6c177" />
    <rect x="84" y="-110" width="16" height="200" rx="8" fill="#f6c177" />
    <path d="M-84 -110 C -30 -160 30 -160 84 -110" stroke="#2d3142" stroke-width="14" fill="none" stroke-linecap="round" />
    <rect x="-44" y="-48" width="32" height="120" rx="16" fill="#ff9a9e" />
    <rect x="28" y="-48" width="32" height="120" rx="16" fill="#8ec5fc" />
    <circle cx="-28" cy="-90" r="26" fill="#ffe7c7" />
    <circle cx="44" cy="-92" r="26" fill="#ffe7c7" />
    <path d="M-44 -110 C -36 -134 -8 -134 0 -110 Z" fill="#d8b4fe" />
    <path d="M28 -116 C 36 -140 68 -140 76 -116 Z" fill="#ffd166" />
    <circle cx="-36" cy="-90" r="5" fill="#2d3142" />
    <circle cx="-20" cy="-90" r="5" fill="#2d3142" />
    <path d="M-40 -72 Q -28 -62 -16 -72" stroke="#2d3142" stroke-width="4" stroke-linecap="round" fill="none" />
    <circle cx="36" cy="-94" r="5" fill="#2d3142" />
    <circle cx="52" cy="-94" r="5" fill="#2d3142" />
    <path d="M34 -76 Q 44 -66 54 -76" stroke="#2d3142" stroke-width="4" stroke-linecap="round" fill="none" />
  </g>
  <g transform="translate(240 250)">
    <path d="M-120 70 Q -60 30 0 60 Q 60 90 120 40" stroke="#2d3142" stroke-width="6" fill="none" stroke-linecap="round" />
    <path d="M-80 40 C -30 0 30 0 80 40" stroke="#8ec5fc" stroke-width="14" fill="none" stroke-linecap="round" />
  </g>
</svg>
